<?xml version="1.0" encoding="UTF-8" standalone="no"?><!DOCTYPE svg PUBLIC "-//W3C//DTD SVG 1.1//EN" "http://www.w3.org/Graphics/SVG/1.1/DTD/svg11.dtd"><svg width="100%" height="100%" viewBox="0 0 1943 2719" version="1.1" xmlns="http://www.w3.org/2000/svg" xmlns:xlink="http://www.w3.org/1999/xlink" xml:space="preserve" xmlns:serif="http://www.serif.com/" style="fill-rule:evenodd;clip-rule:evenodd;stroke-linejoin:round;stroke-miterlimit:2;"><g><g><g><g><g><g><g id="arrow-shadow"><path d="M725.467,1728.78l245.704,353.638l245.704,-353.638l-203.042,72.8l-42.662,73.375l-42.717,-73.375l-202.987,-72.8Z" style="fill:#fff;fill-opacity:0.5;"/></g><g id="down-arrow"><path d="M512.413,2093.55l-512.413,-698.508l629.412,195.492l341.775,491.883l341.771,-491.884l629.413,-195.491l-971.184,1323.91l-409.65,-558.425l189.863,-156.412l-238.987,89.437Z" style="fill:#fff;"/></g><g id="up-arrow"><path d="M1322.18,657.879l355.333,666.029l-457.758,-195.495l-248.567,-491.88l-248.57,491.88l-457.755,195.495l706.325,-1323.91l175.292,328.558l-161.762,83.263l168.083,-71.421l153.183,287.121l-188.833,107.475l205.029,-77.117Z" style="fill:#fff;"/></g><g id="arrow-shadow1" serif:id="arrow-shadow"><path d="M1178.83,1047.47l-207.658,-410.942l-207.659,410.942l164.942,-69.333l42.717,-83.129l42.662,83.129l164.996,69.333Z" style="fill:#fff;fill-opacity:0.5;"/></g></g><g id="losange"><path d="M1189.48,1413.16l-218.296,-218.299l-218.296,218.299l218.296,218.296l218.296,-218.296Z" style="fill:#fff;"/></g></g></g></g></g></g></svg>